<?xml version="1.0" standalone="no"?>
<!DOCTYPE svg PUBLIC "-//W3C//DTD SVG 20010904//EN"
 "http://www.w3.org/TR/2001/REC-SVG-20010904/DTD/svg10.dtd">
<svg version="1.0" xmlns="http://www.w3.org/2000/svg"
 width="400.000000pt" height="400.000000pt" viewBox="0 0 400.000000 400.000000"
 preserveAspectRatio="xMidYMid meet">
<metadata>
Created by potrace 1.16, written by Peter Selinger 2001-2019
</metadata>
<g transform="translate(0.000000,400.000000) scale(0.100000,-0.100000)"
fill="#000000" stroke="none">
<path d="M0 2000 l0 -2000 2000 0 2000 0 0 2000 0 2000 -2000 0 -2000 0 0
-2000z m546 1100 c284 -68 727 -306 981 -527 40 -35 75 -58 78 -53 3 6 11 10
16 10 6 0 -6 -30 -27 -67 -21 -38 -55 -99 -76 -138 -34 -63 -38 -67 -38 -39 0
30 -2 31 -115 68 -297 98 -758 371 -920 546 -28 31 -29 32 -5 20 14 -7 203
-108 420 -225 690 -370 631 -341 647 -320 7 11 13 21 13 24 0 5 -559 310
-1132 620 -54 29 -63 59 -26 85 30 21 86 20 184 -4z m2424 -464 c238 -66 436
-219 547 -424 156 -284 149 -603 -19 -881 -109 -180 -297 -323 -504 -383 -107
-31 -351 -33 -459 -4 -420 114 -695 513 -645 939 45 385 322 685 711 767 63
13 303 4 369 -14z m534 -45 c3 -4 -6 -6 -20 -3 -15 3 -33 -3 -47 -14 l-22 -19
19 23 c19 22 60 30 70 13z m-6 -51 c-1 -36 9 -50 22 -30 6 8 10 10 10 5 0 -13
-20 -35 -32 -35 -4 0 -7 3 -7 8 4 25 -3 42 -18 43 -17 1 -17 2 0 6 9 2 17 11
17 19 0 8 2 14 4 14 3 0 4 -14 4 -30z m-64 -36 c3 -8 2 -12 -4 -9 -6 3 -10 10
-10 16 0 14 7 11 14 -7z m-1653 -99 c38 0 68 -3 67 -7 -11 -30 -135 -248 -141
-248 -5 0 -6 9 -2 20 7 23 -37 105 -65 120 -10 6 -35 10 -54 10 -39 0 -43 6
-22 32 11 15 19 13 90 -28 88 -49 86 -49 86 -31 0 7 -34 29 -76 50 -41 21 -74
41 -72 45 2 4 12 28 23 54 l19 46 39 -32 c35 -28 46 -31 108 -31z m153 -189
c-61 -110 -69 -122 -72 -96 -2 17 -18 45 -36 65 -37 38 -28 46 18 16 28 -19
46 -19 46 -2 0 4 -16 15 -35 24 -40 19 -41 24 -19 71 17 34 17 34 73 29 45 -4
59 -2 70 11 35 42 17 -4 -45 -118z m-741 -157 c39 -11 44 -21 24 -56 -9 -16
-16 -20 -27 -13 -8 5 -36 10 -61 10 -41 0 -51 -4 -77 -35 -55 -61 -53 -172 2
-224 31 -29 93 -32 132 -7 14 10 27 16 29 14 18 -22 25 -51 15 -63 -33 -40
-167 -45 -218 -9 -15 11 -37 40 -50 65 -20 37 -23 56 -20 125 3 69 7 87 31
123 46 69 128 96 220 70z m615 -13 c35 -18 52 -54 52 -108 0 -33 -6 -46 -34
-73 l-34 -32 28 -44 c16 -24 32 -63 36 -86 6 -40 5 -43 -15 -43 -16 0 -35 20
-73 80 -40 63 -56 80 -74 80 -23 0 -24 -3 -24 -80 l0 -80 -40 0 -40 0 0 199 0
200 38 4 c59 7 150 -1 180 -17z m-268 -16 l0 -30 -90 0 -90 0 0 -50 0 -50 65
0 65 0 0 -30 0 -30 -65 0 -65 0 0 -60 0 -60 90 0 90 0 0 -30 0 -30 -125 0
-125 0 0 200 0 200 125 0 125 0 0 -30z"/>
<path d="M2554 2591 c-147 -40 -256 -102 -367 -210 -171 -165 -250 -351 -250
-591 0 -187 45 -332 147 -474 365 -510 1133 -450 1415 111 58 117 76 201 76
363 0 164 -13 227 -71 349 -101 215 -276 366 -509 441 -101 33 -339 38 -441
11z m64 -528 c6 -16 83 -221 171 -457 89 -236 161 -431 161 -433 0 -2 -31 -3
-69 -3 l-69 0 -32 95 -32 95 -171 -2 -171 -3 -30 -92 -30 -93 -42 0 c-26 0
-51 7 -64 18 l-23 19 173 429 c95 236 175 435 177 442 9 22 41 13 51 -15z
m717 12 c83 -22 89 -30 69 -90 -9 -28 -18 -51 -18 -52 -1 -1 -29 9 -62 22
-141 58 -244 13 -244 -107 0 -72 25 -98 152 -163 62 -32 128 -69 147 -83 37
-28 81 -112 81 -156 0 -42 -67 -140 -155 -226 l-75 -72 -93 4 c-65 3 -106 10
-139 25 l-47 22 21 59 22 59 54 -25 c73 -33 165 -40 212 -15 70 37 97 111 65
186 -18 43 -42 60 -165 122 -121 60 -155 86 -181 138 -27 51 -36 151 -19 202
15 45 71 110 114 132 68 35 167 42 261 18z m-1165 -412 l0 -408 -20 25 c-11
14 -38 52 -60 85 l-40 60 0 322 0 323 60 0 60 0 0 -407z"/>
<path d="M2575 1829 c-58 -164 -125 -360 -125 -368 0 -7 43 -11 130 -11 72 0
130 3 130 7 0 9 -121 377 -126 382 -2 2 -6 -2 -9 -10z"/>
<path d="M1670 1945 l0 -55 45 0 c36 0 48 5 61 25 30 46 -5 85 -77 85 -29 0
-29 -1 -29 -55z"/>
</g>
</svg>
